<?xml version="1.0" standalone="no"?>
<!DOCTYPE svg PUBLIC "-//W3C//DTD SVG 20010904//EN"
 "http://www.w3.org/TR/2001/REC-SVG-20010904/DTD/svg10.dtd">
<svg version="1.0" xmlns="http://www.w3.org/2000/svg"
 width="1280.000000pt" height="1280.000000pt" viewBox="0 0 1280.000000 1280.000000"
 preserveAspectRatio="xMidYMid meet">

<g transform="translate(0.000000,1280.000000) scale(0.100000,-0.100000)"
fill="#000000" stroke="none">
<path d="M6220 10779 c-198 -10 -484 -51 -620 -89 -183 -51 -343 -104 -435
-145 -276 -125 -511 -266 -647 -391 -20 -19 -41 -34 -46 -34 -12 0 -307 -295
-346 -346 -17 -23 -58 -77 -92 -120 -66 -86 -154 -211 -154 -219 0 -2 -16 -29
-35 -59 -19 -29 -31 -56 -28 -60 3 -3 -2 -8 -11 -12 -9 -3 -16 -15 -16 -25 0
-10 -4 -19 -8 -19 -8 0 -43 -70 -122 -245 -43 -94 -57 -127 -70 -170 -7 -22
-16 -44 -21 -49 -5 -6 -9 -18 -9 -28 0 -10 -4 -26 -9 -36 -14 -24 -46 -125
-70 -215 -11 -42 -24 -85 -30 -95 -6 -11 -8 -21 -6 -24 3 -3 -4 -40 -16 -84
-69 -260 -120 -712 -122 -1089 -1 -252 14 -417 54 -590 47 -206 61 -263 68
-285 5 -14 17 -52 27 -85 10 -33 22 -64 26 -70 4 -5 8 -17 8 -27 0 -10 4 -26
9 -36 5 -9 28 -64 51 -122 35 -86 108 -247 174 -380 29 -57 84 -158 109 -197
15 -24 27 -47 27 -51 0 -5 11 -21 25 -36 14 -15 25 -31 25 -36 0 -12 91 -154
102 -158 4 -2 8 -8 8 -13 0 -12 122 -186 198 -283 30 -37 77 -98 105 -135 28
-36 68 -84 88 -106 21 -22 52 -59 71 -81 127 -158 562 -595 724 -726 23 -18
79 -65 125 -104 118 -99 296 -234 308 -234 6 0 11 -4 11 -8 0 -5 12 -15 27
-23 16 -8 55 -32 88 -54 68 -45 75 -50 165 -102 99 -58 196 -102 295 -135 128
-43 243 -43 371 0 118 39 284 122 415 208 57 37 115 74 129 82 13 7 67 45 118
85 52 40 106 81 121 92 148 110 430 362 606 541 272 276 535 573 535 603 0 6
4 11 9 11 15 0 251 320 251 340 0 6 5 10 10 10 6 0 10 6 10 14 0 8 3 16 8 18
8 3 102 145 102 154 0 3 11 20 24 37 13 18 41 64 61 102 20 39 40 75 45 80 14
17 80 146 80 156 0 5 10 26 23 47 13 20 36 66 51 102 16 36 39 88 51 115 12
28 28 66 35 85 7 19 17 39 22 45 4 5 8 19 8 30 0 12 3 25 7 29 8 8 32 72 39
105 3 14 8 29 11 34 3 5 9 23 14 41 4 17 21 81 37 141 16 61 35 139 41 175 7
36 17 86 21 111 5 25 15 105 21 177 7 73 16 132 21 132 4 0 8 63 8 140 0 77
-4 140 -9 140 -4 0 -12 71 -16 158 -6 138 -29 365 -55 532 -21 142 -85 427
-106 478 -8 18 -14 39 -14 46 0 32 -109 342 -159 451 -10 22 -31 69 -47 105
-16 36 -44 91 -61 122 -18 31 -33 61 -33 67 0 6 -4 11 -10 11 -5 0 -10 4 -10
9 0 31 -168 280 -290 431 -131 162 -451 470 -488 470 -5 0 -16 7 -23 17 -16
18 -177 125 -254 167 -27 16 -57 34 -66 42 -8 8 -20 14 -25 14 -6 0 -32 11
-60 24 -27 14 -60 30 -74 35 -14 6 -32 15 -40 20 -45 27 -291 114 -415 147
-86 23 -283 64 -330 69 -22 3 -71 9 -110 15 -75 10 -381 31 -430 29 -17 -1
-100 -5 -185 -10z m401 -449 c73 -6 163 -15 199 -21 134 -23 276 -52 315 -64
22 -6 60 -18 85 -25 71 -20 131 -41 177 -61 24 -11 47 -19 53 -19 6 0 18 -4
28 -10 9 -5 63 -31 118 -59 118 -57 132 -65 196 -108 26 -18 52 -33 56 -33 5
0 19 -11 32 -25 12 -13 26 -22 31 -20 4 3 10 1 14 -5 3 -5 41 -36 83 -69 91
-69 254 -227 339 -327 62 -74 173 -220 173 -229 0 -3 15 -26 34 -52 18 -27 47
-73 64 -103 34 -59 132 -256 132 -264 0 -3 11 -29 23 -58 13 -29 34 -80 46
-113 13 -33 29 -76 37 -95 22 -58 91 -308 115 -420 21 -101 25 -127 49 -285
19 -132 50 -540 50 -660 0 -109 -16 -285 -39 -440 -16 -108 -88 -383 -112
-427 -5 -10 -9 -24 -9 -31 0 -26 -120 -305 -188 -438 -96 -187 -167 -311 -208
-366 -13 -17 -24 -35 -24 -40 0 -4 -29 -48 -65 -98 -35 -49 -65 -96 -65 -102
0 -7 -4 -13 -9 -13 -4 0 -21 -19 -36 -42 -16 -24 -41 -59 -57 -78 -15 -19 -60
-75 -99 -125 -40 -49 -90 -111 -113 -136 -22 -26 -57 -66 -76 -90 -83 -104
-591 -609 -612 -609 -3 0 -21 -14 -39 -32 -38 -35 -243 -199 -305 -244 -23
-16 -67 -48 -97 -71 -31 -24 -59 -43 -62 -43 -3 0 -27 -15 -53 -33 -120 -83
-274 -161 -350 -178 -77 -16 -181 20 -332 115 -36 23 -76 47 -90 53 -14 7 -59
37 -100 68 -41 30 -81 58 -88 61 -7 4 -23 15 -35 25 -12 10 -73 58 -134 107
-62 49 -133 107 -157 130 -25 23 -48 42 -51 42 -4 0 -12 6 -19 12 -7 7 -64 61
-127 120 -243 226 -420 414 -603 638 -158 195 -175 215 -210 268 -16 23 -33
42 -37 42 -5 0 -9 6 -9 13 0 6 -26 48 -58 92 -51 72 -153 234 -213 340 -26 46
-169 333 -192 385 -8 19 -32 80 -52 135 -21 55 -41 109 -45 120 -15 39 -59
191 -79 275 -69 291 -80 528 -46 1040 19 298 127 773 237 1045 11 28 23 59 27
70 4 11 25 56 46 100 20 44 43 91 49 105 84 184 334 531 487 675 111 104 267
231 312 254 15 8 27 18 27 23 0 4 4 8 10 8 5 0 31 15 57 34 27 19 111 65 188
103 128 62 184 86 285 122 33 12 48 17 130 40 19 5 60 17 90 26 88 25 291 57
465 74 131 12 282 12 436 1z"/>
<path d="M4670 6999 c-30 -4 -84 -9 -120 -12 -160 -13 -228 -48 -279 -140 -17
-31 -21 -55 -21 -134 0 -52 5 -123 10 -157 12 -69 47 -261 59 -321 10 -50 65
-203 97 -273 13 -29 24 -57 24 -62 0 -6 5 -10 10 -10 6 0 10 -6 10 -14 0 -26
110 -195 132 -204 4 -2 8 -9 8 -16 0 -14 133 -146 147 -146 4 0 25 -16 46 -34
62 -54 208 -121 337 -155 97 -26 281 -51 373 -51 71 0 340 31 427 50 157 33
204 53 252 109 50 59 62 118 48 238 -31 270 -87 476 -183 673 -64 130 -178
288 -254 349 -21 17 -58 47 -83 67 -24 20 -54 40 -65 45 -11 5 -36 19 -55 31
-100 60 -292 124 -445 147 -163 24 -372 33 -475 20z"/>
<path d="M7890 7003 c-150 -11 -366 -47 -435 -73 -229 -85 -332 -148 -465
-280 -57 -57 -164 -202 -189 -255 -7 -16 -17 -37 -22 -45 -5 -8 -14 -25 -19
-38 -5 -13 -20 -47 -33 -75 -13 -29 -29 -72 -36 -97 -7 -25 -17 -56 -23 -69
-5 -14 -13 -43 -18 -65 -5 -23 -15 -71 -24 -108 -8 -36 -22 -129 -32 -206
l-17 -140 22 -55 c35 -85 99 -136 201 -158 118 -25 160 -32 295 -49 215 -29
302 -26 526 16 147 27 318 98 413 172 64 49 186 163 186 174 0 4 11 21 24 36
52 58 119 175 171 297 9 22 23 55 31 73 8 18 14 41 14 52 0 10 4 21 9 24 5 3
11 18 14 33 3 16 14 64 25 108 19 76 27 122 52 276 14 89 15 258 1 272 -6 6
-11 17 -11 24 0 18 -59 82 -91 99 -15 7 -47 18 -70 23 -103 23 -385 42 -499
34z"/>
</g>
</svg>
